<?xml version="1.0" standalone="no"?>
<!DOCTYPE svg PUBLIC "-//W3C//DTD SVG 20010904//EN"
 "http://www.w3.org/TR/2001/REC-SVG-20010904/DTD/svg10.dtd">
<svg version="1.0" xmlns="http://www.w3.org/2000/svg"
 width="196.000000pt" height="163.000000pt" viewBox="0 0 196.000000 163.000000"
 preserveAspectRatio="xMidYMid meet">

<g transform="translate(0.000000,163.000000) scale(0.100000,-0.100000)"
fill="#000000" stroke="none">
<path d="M157 1621 c-48 -10 -105 -56 -131 -107 -20 -37 -21 -55 -21 -374 0
-323 1 -336 21 -375 25 -46 45 -65 94 -91 33 -18 74 -19 770 -22 404 -2 784 1
843 6 97 8 111 12 145 39 20 16 47 49 60 73 21 43 22 52 22 360 0 189 -4 330
-11 353 -12 44 -59 101 -103 125 -28 16 -99 17 -841 19 -445 0 -827 -2 -848
-6z m1657 -90 c62 -41 66 -56 66 -273 l0 -198 -900 0 -900 0 0 190 c0 172 2
195 20 230 11 22 21 40 23 40 1 0 20 7 42 15 34 12 168 14 830 14 757 1 791 0
819 -18z m66 -627 c0 -90 -17 -127 -72 -155 -36 -18 -70 -19 -830 -19 -768 0
-794 1 -825 20 -18 10 -39 31 -49 45 -17 26 -31 142 -21 169 6 14 99 16 902
16 l895 0 0 -76z"/>
<path d="M245 891 c-70 -6 -70 -6 -70 -36 l0 -30 557 -3 557 -2 12 21 c9 17 8
25 -5 38 -15 14 -67 16 -499 17 -265 1 -513 -1 -552 -5z"/>
<path d="M1413 890 c-13 -5 -23 -17 -23 -27 0 -38 14 -44 86 -41 67 3 69 4 72
30 3 22 -2 30 -23 38 -32 12 -82 12 -112 0z"/>
<path d="M1657 888 c-12 -9 -18 -23 -15 -39 3 -22 8 -24 70 -27 57 -2 68 0 77
16 7 14 7 24 -3 37 -17 23 -104 32 -129 13z"/>
<path d="M292 548 c-54 -58 -54 -114 -2 -269 22 -66 40 -127 40 -137 0 -9 -9
-34 -20 -55 -24 -44 -25 -60 -5 -77 24 -20 59 2 84 52 30 62 27 97 -19 233
-45 135 -48 162 -20 198 23 29 25 48 8 65 -18 18 -42 14 -66 -10z"/>
<path d="M611 544 c-50 -63 -48 -120 10 -282 34 -98 36 -143 9 -187 -11 -18
-18 -40 -14 -48 10 -26 43 -31 66 -10 60 54 64 139 13 279 -39 108 -43 158
-17 203 32 57 -26 97 -67 45z"/>
<path d="M943 548 c-55 -61 -56 -111 -3 -269 22 -66 40 -127 40 -137 0 -9 -9
-34 -20 -55 -24 -44 -25 -60 -5 -77 24 -20 59 2 84 52 30 62 27 97 -19 233
-22 65 -40 130 -40 143 0 12 10 40 22 61 19 33 20 41 9 55 -19 22 -44 20 -68
-6z"/>
<path d="M1480 551 c-5 -11 -10 -58 -10 -106 l0 -86 -89 48 c-76 41 -91 46
-105 34 -31 -26 -19 -50 47 -90 111 -69 107 -63 51 -95 -110 -64 -130 -88 -99
-120 18 -18 29 -15 117 36 36 21 69 38 72 38 3 0 6 -40 6 -89 0 -68 4 -93 16
-105 18 -19 20 -19 45 -6 17 9 19 22 19 105 0 52 2 95 5 95 3 0 42 -20 88 -44
89 -48 117 -49 117 -1 0 20 -15 33 -80 71 -44 26 -80 48 -80 50 0 2 31 22 69
44 79 47 94 62 89 86 -8 40 -33 38 -114 -7 -43 -24 -82 -45 -86 -47 -5 -2 -8
39 -8 90 0 60 -4 98 -12 106 -18 18 -46 14 -58 -7z"/>
</g>
</svg>
