<?xml version="1.0" standalone="no"?>
<!DOCTYPE svg PUBLIC "-//W3C//DTD SVG 20010904//EN"
 "http://www.w3.org/TR/2001/REC-SVG-20010904/DTD/svg10.dtd">
<svg version="1.0" xmlns="http://www.w3.org/2000/svg"
 width="223.000000pt" height="40.000000pt" viewBox="0 0 223.000000 40.000000"
 preserveAspectRatio="xMidYMid meet">

<g transform="translate(0.000000,40.000000) scale(0.100000,-0.100000)"
fill="#000000" stroke="none">
<path d="M66 378 c-9 -36 -7 -48 9 -48 19 0 19 -17 0 -121 -23 -128 -24 -129
-44 -129 -13 0 -20 -9 -23 -30 l-5 -30 84 0 c65 0 83 3 83 14 0 8 3 21 6 30 4
12 0 16 -16 16 -18 0 -21 4 -17 21 3 11 14 68 23 125 15 84 21 104 35 104 18
0 29 19 29 51 0 17 -8 19 -79 19 -73 0 -79 -2 -85 -22z"/>
<path d="M696 384 c-3 -9 -6 -24 -6 -35 0 -15 -7 -19 -35 -19 -31 0 -35 -3
-35 -25 0 -36 3 -40 28 -40 27 1 27 -7 7 -112 -19 -97 -19 -98 1 -117 11 -12
36 -16 98 -16 73 0 85 3 104 23 37 39 29 57 -23 57 -25 0 -45 -4 -45 -10 0
-10 -42 -14 -52 -5 -2 3 3 44 11 92 l16 87 48 -3 c43 -2 48 0 57 24 16 42 13
45 -41 45 l-52 0 6 35 6 35 -44 0 c-30 0 -45 -5 -49 -16z"/>
<path d="M1757 393 c-4 -3 -7 -19 -7 -35 0 -27 2 -28 45 -28 38 0 45 3 45 19
0 11 3 26 6 35 5 13 -2 16 -38 16 -25 0 -48 -3 -51 -7z"/>
<path d="M291 307 c-16 -18 -27 -55 -45 -155 l-23 -132 42 0 c25 0 45 5 48 12
2 7 13 61 23 121 l18 107 68 0 c37 0 68 -1 68 -3 0 -1 -9 -49 -20 -107 -11
-58 -20 -111 -20 -117 0 -9 15 -13 44 -13 l43 0 17 92 c41 223 44 218 -123
218 -110 0 -119 -1 -140 -23z"/>
<path d="M980 312 c-17 -14 -27 -41 -41 -113 -21 -112 -23 -151 -7 -167 13
-13 232 -18 263 -6 14 6 45 53 45 69 0 9 -89 5 -95 -5 -3 -5 -35 -10 -71 -10
-62 0 -65 1 -62 22 3 22 9 23 100 28 116 6 132 17 148 99 8 44 7 59 -5 78 -15
22 -21 23 -134 23 -100 0 -122 -3 -141 -18z m186 -108 c-7 -19 -136 -20 -136
-1 1 48 11 56 74 59 57 3 61 2 64 -20 2 -13 1 -30 -2 -38z"/>
<path d="M1353 308 c-25 -27 -33 -52 -35 -103 -2 -55 18 -65 125 -65 77 0 88
-2 83 -16 -3 -9 -6 -22 -6 -30 0 -18 -126 -20 -132 -3 -6 17 -87 17 -93 1 -9
-23 -6 -40 11 -56 12 -13 40 -16 139 -16 120 0 124 1 143 25 25 31 37 107 22
135 -10 18 -20 20 -105 20 l-95 0 0 30 0 30 70 0 c56 0 70 -3 70 -15 0 -11 12
-15 45 -15 45 0 45 0 45 34 0 59 -16 66 -149 66 -109 0 -119 -2 -138 -22z"/>
<path d="M1925 308 c-21 -18 -27 -35 -32 -82 -8 -79 2 -86 120 -86 88 0 89 0
83 -22 -3 -13 -6 -26 -6 -30 0 -12 -130 -9 -130 2 0 6 -20 10 -44 10 -51 0
-65 -19 -41 -56 15 -23 20 -24 138 -24 115 0 125 2 145 22 26 29 41 121 22
143 -9 11 -35 15 -107 15 l-94 0 3 28 c3 26 5 27 71 30 55 2 67 0 67 -13 0
-11 11 -15 45 -15 l45 0 0 40 c0 54 -16 60 -149 60 -100 0 -112 -2 -136 -22z"/>
<path d="M1706 294 c-11 -28 -6 -54 10 -54 10 0 14 -6 10 -17 -2 -10 -7 -38
-11 -63 -10 -68 -14 -77 -35 -83 -14 -3 -20 -14 -20 -31 l0 -27 78 3 c76 3 77
3 80 31 3 20 -1 27 -13 27 -13 0 -16 6 -12 23 4 12 11 55 18 95 11 66 10 74
-6 92 -23 25 -90 28 -99 4z"/>
</g>
</svg>
